<svg width="1024" height="1024" viewBox="0 0 1024 1024" fill="none" xmlns="http://www.w3.org/2000/svg">
<rect width="1024" height="1024" rx="200" fill="#E4DBCA"/>
<path d="M124 520C124 623.965 165.511 723.672 239.4 797.186C313.289 870.7 413.505 912 518 912C622.495 912 722.711 870.7 796.6 797.186C870.489 723.672 912 623.965 912 520C912 416.035 870.489 316.328 796.6 242.814C722.711 169.3 622.495 128 518 128C413.505 128 313.289 169.3 239.4 242.814C165.511 316.328 124 416.035 124 520Z" fill="#E4DBCA"/>
<path d="M513.584 225C371.111 225 254.607 325.835 235.276 465.446H173.576C162.873 465.446 138.068 469.427 130.5 477C122.932 484.573 119.5 501.29 119.5 512C119.5 522.71 122.932 541.427 130.5 549C138.068 556.573 162.873 559.554 173.576 559.554H235.276C254.607 699.165 371.111 800 513.584 800C669.556 800 796 671.283 796 512.5C796 353.721 669.56 225 513.584 225Z" fill="white"/>
<path d="M310.996 512.512C310.996 538.678 316.15 564.588 326.163 588.762C336.177 612.937 350.853 634.902 369.356 653.404C387.858 671.907 409.823 686.583 433.998 696.597C458.172 706.61 484.082 711.764 510.248 711.764C536.414 711.764 562.324 706.61 586.499 696.597C610.673 686.583 632.638 671.907 651.141 653.404C669.643 634.902 684.32 612.937 694.333 588.762C704.346 564.588 709.5 538.678 709.5 512.512C709.5 459.667 688.508 408.987 651.141 371.62C613.774 334.253 563.093 313.26 510.248 313.26C457.403 313.26 406.723 334.253 369.356 371.62C331.989 408.987 310.996 459.667 310.996 512.512Z" fill="#BF5710" fill-opacity="0.8"/>
<path d="M649.904 370.9C649.384 370.404 648.808 369.996 648.284 369.504L373.456 657.776C373.972 658.276 374.404 658.832 374.928 659.328C454.576 735.26 580.696 732.248 656.632 652.6C732.564 572.956 729.552 446.832 649.904 370.9Z" fill="#8D3F07" fill-opacity="0.8"/>
</svg>
